<svg width="27" height="36" viewBox="0 0 27 36" xmlns="http://www.w3.org/2000/svg"><title>Imported Layers</title><desc>Created with Sketch Beta.</desc><g fill="none" fill-rule="evenodd"><g stroke="#000"><g><g><path d="M26.117 32.38L24.89 19.66c.02-.134.033-.27.033-.41v-.902c0-.44-.1-.858-.278-1.235-.138-.295-.325-.565-.55-.798-.553-.577-1.337-.94-2.208-.94h-3.955c.37-.394.776-.793 1.19-1.2 2.324-2.28 5.505-5.4 2.56-9.468C19.77 2.072 16.724.5 13.53.5 8.906.5 3.27 3.96 1.327 13.668c-1.04 5.198.457 11.298 3.72 15.178 1.857 2.21 4.04 3.376 6.316 3.376 1.18 0 2.35-.32 3.476-.95 2.742-1.533 4.212-3.024 4.627-4.69.402-1.618-.298-3.06-1.11-4.357h2.107l1.06 10.994c0 .046.002.086.006.12.002.03.008.066.016.107.045.223.193.594.663.854.305.17.743.292 1.38.292.15 0 .308-.008.468-.023.486-.047.932-.155 1.29-.316.192-.086.346-.184.47-.286.21-.173.334-.358.404-.53l-.103-1.057"/></g></g></g></g></svg>