<svg width="60" height="60" viewBox="0 0 60 60" xmlns="http://www.w3.org/2000/svg"><title>icon_pen</title><desc>Created with Sketch Beta.</desc><g fill="none" fill-rule="evenodd"><g fill="#444"><path d="M59.984 4.462l-4.43-4.43-6.966 6.965.494.494-1.392 1.393-.494-.493-41.42 41.42L.015 60l10.188-5.76 41.422-41.42-.493-.494 1.392-1.392 1.31 1.31-13.41 13.41.512.514 17.15-17.15-1.33-1.33 3.227-3.226zM1.93 58.085l4.216-7.458L9.39 53.87l-7.46 4.215zm48.69-46.27l-2.417-2.42 1.39-1.39 2.42 2.417-1.392 1.392zm-1.007-4.818l5.94-5.94 3.405 3.405-2.713 2.714-3.227 3.226-3.405-3.405zm7.45 2.02l-2.714 2.715-.818-.817L56.246 8.2l.816.818z"/></g></g></svg>