<svg width="187" height="119" viewBox="0 0 187 119" xmlns="http://www.w3.org/2000/svg"><title>noun_project_20477 2</title><desc>Created with Sketch Beta.</desc><g fill="none" fill-rule="evenodd"><g stroke="#3498DB" stroke-width="2" fill="#fff"><g><path d="M181.418 24.082s-3.62-4.71-8.96-6.166c0 0-.684-2.224.607-3.337 1.29-1.113 4.738-7.325-3.964-10.77 0 0-11.37-1.303-7.064 8.112 0 0 1.208 2.655-.343 3.425-1.552.77-6.637 1.37-11.117 6.764-4.48 5.395-3.792 7.45-3.792 7.45s-3.963-6.505-11.544-6.505l-.435-2.14s3.878 1.114 4.484-3.34c.6-4.45-2.33-3.34-2.33-3.34s3.015-7.62-6.805-7.62c0 0-6.55 1.03-5.428 7.88 1.12 6.85 2.844 6.762 2.844 6.762l.433 1.712s-2.93-.087-3.534.428c0 0-2.498-4.28-9.478-6.25 0 0 6.633-11.13-4.655-14.298 0 0-7.41-.086-7.496 4.367-.085 4.452 2.33 10.016 2.33 10.016s-6.55 1.543-8.102 4.453c-1.55 2.91-1.206 5.136-1.206 5.136l-2.832-.343S97.327 20.74 95 15.09c-2.327-5.652-8.1-6.422-12.495-4.11 0 0-7.667 3.168-5.34 9.075 0 0 .688 2.568 1.594 4.025 0 0-3.06.17-3.75 1.114 0 0-3.19-8.134-11.46-9.763 0 0 8.1-11.9-4.998-13.87 0 0-7.928.944-7.756 5.31 0 0 .258 4.794 1.55 7.19l.173 1.54s-3.792-1.112-7.41 2.31l-.862 3.513s-3.273-3.768-9.046-3.512c0 0 .946-5.137.946-5.906 0-.77 1.293-1.115 1.293-1.115s-1.895-8.562-10.813-6.98c0 0-3.124-.663-5.02 1.307-1.894 1.97-1.605 6.86-1.605 8.23s2.59 2.316 3.372 2.146c.78-.17 1.48 1.03 1.48 1.03l.35.6s-7.497.514-9.306 3.597c-1.81 3.082-3.445 11.216-4.308 12.587-.862 1.37-9.737 16.953-9.737 16.953s.603 2.222 1.466 2.567c0 0-1.465 2.14-1.982 2.738-.516.6-.258 3.684 0 4.11.26.428 1.378 0 1.378 0s-.516-1.967.775-3.168c1.294-1.197.69-.597.69-.597l.26 1.54.773.6s0-1.63.343-2.485c.345-.854.26-1.71.26-1.71l1.987.78s6.376-11.39 6.98-12.762c.602-1.37 3.013-9.162 3.878-8.987.86.17.518 2.14.518 2.14s.43 7.02-2.41 10.96c-2.845 3.937-5.863 12.157-5.863 13.183 0 0 1.38 1.863 7.583 4.088l.17 9.048h-.602s-1.516 2.164-1.085 5.417l.468.884v16.263l.354 3.51s-2.152 1.97-2.065 3.17c.086 1.195 1.597 3.165 2.63 3.938 1.034.77 5.104 1.2 5.62.683 0 0 1.22-4.11.79-6.763l-1.12-.938s1.498-15.756 1.928-18.41l1.497-1.028v-5.736l-.67-.343s1.686-8.05 2.117-8.388c.43-.345.756.6.756.6s-.743 15.583.03 16.783c.778 1.193 1.487 2.05 1.487 2.05l.61-.257 2.07 15.756s.176 7.535-.426 8.3c-.603.772-.556 1.373.453 1.885 1.012.515 6.53.515 6.785 0 .258-.514 1.033-2.568.688-3.767-.345-1.2-1.033-7.448-3.448-7.79 0 0 1.552-14.13 1.725-14.726l1.29-.6s-.602-4.363-.774-4.794c-.17-.427.69-12.757.69-12.757l3.964-1.372s-1.725-4.02-1.725-5.903c0-1.884-.516-13.1-4.48-18.753l.13-3.423 3.49-2.186s4.007 4.88 7.626 5.65c0 0-2.97 15.795-2.712 20.162.258 4.37 2.713 15.67 2.713 15.67s1.68 2.568 1.55 3.726c-.127 1.154-.904 6.807 4.397 12.327 0 0-2.717 6.81-3.49 7.833-.776 1.027-4.01 5.783-2.846 7.707 0 0 .65 1.157 4.526 1.283 0 0-1.29 1.8.647 3.467 1.94 1.674 7.32.998 7.32.998s.434-3.435 2.633-4.59c2.198-1.154 3.618-2.052 2.844-3.852-.777-1.798-2.455-3.854-2.455-3.854s-3.363-5.65-3.102-10.533c.258-4.88 1.163-11.816 1.292-16.438l5.168-1.155s5.69-.385 5.818-2.44c.13-2.057-.387-17.597-4.522-27.613 0 0 5.04-1.413 5.557-2.182 0 0 2.195 8.604.646 13.87 0 0-1.808 3.98-1.42 8.6.386 4.628 4.74 22.733 4.74 22.733l1.33-.128s2.07 12.847 3.75 15.413c0 0-.13 1.798-1.81 3.468-1.68 1.673-1.29 3.724-1.29 3.724s.258 1.928.258 2.57c0 .644.648 4.108 6.076 3.982 0 0 3.877-4.624 4.393-5.264.518-.645.39-3.213 0-3.6-.385-.382-1.55-1.926-1.55-1.926s-1.034-1.156-.903-3.595c.13-2.44 1.55-7.193 1.68-15.926 0 0 7.756-2.952 11.887-5.14 0 0 2.33 11.56 2.46 12.717.125 1.157 2.584.9 2.584.9s4.266 11.173 4.782 13.616c.517 2.437 0 3.854 0 3.854s-3.878.127-3.878 2.438c0 2.312 4.006 5.008 10.856 3.467 0 0 2.713-1.285 1.68-6.033-1.033-4.752-3.1-18.11-1.68-20.68l2.588.514 1.16-4.752 1.555-.256s-.52 11.432 4.91 19.263l.98 4.298s-1.757-1.34-3.565.07c-1.81 1.414-2.846 7.32 5.947 7.064 0 0 4.134 0 4.523-1.285.387-1.283-.906-2.956-.906-2.956l-.13-.897s2.263-.125 2.876-.253c.61-.128.873-3.084.873-3.084l-1.166-4.11s-1.16-1.67-.9-3.98c.255-2.317 2.324-7.576-.387-16.183 0 0-1.684-2.826 0-5.652 1.675-2.827 3.23-7.06 5.424-10.784 0 0 .26 1.026 2.2 1.41 0 0-1.294-5.138 0-4.882 0 0-.043 1.157.993 1.415 0 0-.26-1.11 0-2.87.258-1.757 0-5.78 0-5.78l3.53-7.107s-2.24 12.415-1.636 13.355l1.636.175s-2.487 19.947 1.39 25.6c3.873 5.647 6.82 14.123 6.82 15.92v14.386s6.62.512 7.91-2.83c1.297-3.34.73-3.596 2.278-5.65 1.55-2.053 4.5-4.108 4.5-4.108s-4.342-4.626-4.082-10.02c.26-5.39 3.128-23.887 6.745-28.254 3.62-4.368 1.534-10.016 1.534-10.016l2.313-.513v11.558s-1.133 4.88.93 6.674c2.07 1.8 2.667-1.796 2.667-1.796s-1.383-4.88-.09-5.91c1.292-1.026 1.767-3.08 1.767-3.08s2.274-24.14-3.152-39.554zm-80.99 32.19l-.346 1.8-4.35-11.786 5.042-4.513h1.033l1.12 1.17-2.498 13.328zm46.187-13.61c-.866.685-3.274 7.15-3.274 7.15l-.778-.388s-2.067-3.938-1.896-6.077c.176-2.14 1.47-6.08 1.47-6.08s.515-1.626 1.118-1.113c.603.515 3.363 4.024 3.363 4.024s.86 1.798-.002 2.484z"/></g></g></g></svg>