<?xml version="1.0" encoding="UTF-8" standalone="no"?>
<svg width="161px" height="108px" viewBox="0 0 161 108" version="1.1" xmlns="http://www.w3.org/2000/svg" xmlns:xlink="http://www.w3.org/1999/xlink" xmlns:sketch="http://www.bohemiancoding.com/sketch/ns">
    <!-- Generator: Sketch Beta 3.2.2 (9983) - http://www.bohemiancoding.com/sketch -->
    <title>icon_52056</title>
    <desc>Created with Sketch Beta.</desc>
    <defs></defs>
    <g id="Welcome" stroke="none" stroke-width="1" fill="none" fill-rule="evenodd" sketch:type="MSPage">
        <g id="Statistik:-Landsting-(Norrbotten)" sketch:type="MSArtboardGroup" transform="translate(-469.000000, -437.000000)">
            <g id="icon_52056" sketch:type="MSLayerGroup" transform="translate(466.000000, 434.500000)">
                <path d="M154.730835,109.52989 L69.849765,109.52989 L69.849765,50.44192 L38.765205,50.44192 L38.765205,109.52989 L13.503465,109.52989 L13.503465,27.916315 L154.730835,27.916315 L154.730835,109.52989 L154.730835,109.52989 Z M72.248265,107.129545 L152.332335,107.129545 L152.332335,30.31297 L15.901965,30.31297 L15.901965,107.129545 L36.36855,107.129545 L36.36855,48.04342 L72.248265,48.04342 L72.248265,107.129545 L72.248265,107.129545 Z M132.01704,69.98785 L119.594655,69.98785 L119.594655,57.565465 L108.081855,57.565465 L108.081855,69.98785 L95.661315,69.98785 L95.661315,81.50065 L108.081855,81.50065 L108.081855,93.92488 L119.594655,93.92488 L119.594655,81.50065 L132.01704,81.50065 L132.01704,69.98785 L132.01704,69.98785 Z M3.525705,27.916315 L163.1754,27.916315 L152.72901,2.54941 L15.462855,2.54941 L3.525705,27.916315 L3.525705,27.916315 Z" id="Shape" fill="#282828" sketch:type="MSShapeGroup"></path>
                <rect id="Rectangle-path" sketch:type="MSShapeGroup" x="0.225" y="0.745" width="166.05" height="108.753525"></rect>
            </g>
        </g>
    </g>
</svg>