<?xml version="1.0" encoding="UTF-8" standalone="no"?>
<svg width="35px" height="20px" viewBox="0 0 35 20" version="1.1" xmlns="http://www.w3.org/2000/svg" xmlns:xlink="http://www.w3.org/1999/xlink" xmlns:sketch="http://www.bohemiancoding.com/sketch/ns">
    <!-- Generator: Sketch Beta 3.2.2 (9983) - http://www.bohemiancoding.com/sketch -->
    <title>Imported Layers</title>
    <desc>Created with Sketch Beta.</desc>
    <defs></defs>
    <g id="Welcome" stroke="none" stroke-width="1" fill="none" fill-rule="evenodd" sketch:type="MSPage">
        <g id="Logged-in:-Patient-profile" sketch:type="MSArtboardGroup" transform="translate(-996.000000, -2150.000000)" stroke="#000000">
            <g id="Group" sketch:type="MSLayerGroup" transform="translate(250.000000, 430.500000)">
                <g id="Group-5" sketch:type="MSShapeGroup">
                    <g transform="translate(720.000000, 1688.000000)">
                        <path d="M59.2723256,39.6965833 C55.4880465,34.804875 49.7910698,32 43.6433953,32 C37.4941395,32 31.7971628,34.8056667 28.0144651,39.6965833 L27,41.0075833 L28.0136744,42.3185833 C31.7971628,47.2102917 37.4941395,50.0151667 43.6433953,50.0151667 C49.7910698,50.0151667 55.4880465,47.2102917 59.2723256,42.319375 L60.2867907,41.0075833 L59.2723256,39.6965833 L59.2723256,39.6965833 Z M43.6433953,45.6507083 C40.9376279,45.6507083 38.7434419,43.4554167 38.7434419,40.7455417 C38.7434419,38.0364583 40.9368372,35.840375 43.6433953,35.840375 C46.3483721,35.840375 48.5417674,38.0356667 48.5417674,40.7455417 C48.5417674,43.4554167 46.3483721,45.6507083 43.6433953,45.6507083 L43.6433953,45.6507083 Z" id="Imported-Layers"></path>
                    </g>
                </g>
            </g>
        </g>
    </g>
</svg>