<?xml version="1.0" encoding="UTF-8" standalone="no"?>
<svg width="27px" height="36px" viewBox="0 0 27 36" version="1.1" xmlns="http://www.w3.org/2000/svg" xmlns:xlink="http://www.w3.org/1999/xlink" xmlns:sketch="http://www.bohemiancoding.com/sketch/ns">
    <!-- Generator: Sketch Beta 3.2.2 (9983) - http://www.bohemiancoding.com/sketch -->
    <title>Imported Layers</title>
    <desc>Created with Sketch Beta.</desc>
    <defs></defs>
    <g id="Welcome" stroke="none" stroke-width="1" fill="none" fill-rule="evenodd" sketch:type="MSPage">
        <g id="Logged-in:-Patient-profile" sketch:type="MSArtboardGroup" transform="translate(-278.000000, -2142.000000)" stroke="#000000">
            <g id="Group" sketch:type="MSLayerGroup" transform="translate(250.000000, 430.500000)">
                <g id="Group-3" sketch:type="MSShapeGroup">
                    <g transform="translate(0.000000, 1688.000000)">
                        <path d="M54.1174404,55.8810227 L52.8905654,43.1601136 C52.9092529,43.0256818 52.9230654,42.8904545 52.9230654,42.75125 L52.9230654,41.8484091 C52.9230654,41.4069318 52.8215029,40.9901136 52.6451904,40.6130682 C52.5070654,40.3179545 52.3201904,40.0482955 52.0959404,39.8152273 C51.5418154,39.2377273 50.7577529,38.875 49.8867529,38.875 L45.9315029,38.875 C46.3020029,38.48125 46.7082529,38.0819318 47.1226279,37.6746591 C49.4455654,35.3948864 52.6273154,32.2743182 49.6811904,28.2071591 C47.7701904,25.5718182 44.7249404,24 41.5334404,24 C36.9046279,24 31.2675029,27.4594318 29.3264404,37.1679545 C28.2872529,42.36625 29.7830654,48.4657955 33.0460654,52.3460227 C34.9034404,54.555 37.0874404,55.7219318 39.3624404,55.7219318 C40.5413779,55.7219318 41.7113779,55.4021591 42.8383154,54.7713636 C45.5796904,53.2385227 47.0495029,51.7478409 47.4646904,50.0821591 C47.8668779,48.4642045 47.1673154,47.0220455 46.3540029,45.7246591 L48.4624404,45.7246591 L49.5219404,56.7194318 C49.5219404,56.7655682 49.5235654,56.8061364 49.5276279,56.8403409 C49.5300654,56.8697727 49.5357529,56.9063636 49.5438779,56.9469318 C49.5885654,57.1704545 49.7372529,57.5411364 50.2068779,57.80125 C50.5115654,57.9698864 50.9503154,58.0915909 51.5881279,58.0915909 C51.7376279,58.0915909 51.8952529,58.0844318 52.0553154,58.0693182 C52.5411904,58.0231818 52.9872529,57.915 53.3439404,57.7543182 C53.5373154,57.6676136 53.6908779,57.5697727 53.8160029,57.4679545 C54.0256279,57.2953409 54.1491279,57.11 54.2190029,56.9373864 L54.1174404,55.8810227" id="Imported-Layers"></path>
                    </g>
                </g>
            </g>
        </g>
    </g>
</svg>