<svg width="20" height="41" viewBox="0 0 20 41" xmlns="http://www.w3.org/2000/svg"><title>Imported Layers</title><desc>Created with Sketch Beta.</desc><g fill="none" fill-rule="evenodd"><g stroke="#000"><g><g><g><path d="M18.454 17.897c.683-2.5 1.76-5.83.325-8.26-1.36-2.306-4.633-2.33-6.925-1.85C7.483 8.7 1.58 12.49 2.64 17.45c.76 3.564 3.82 7.636 3.88 10.83.054 2.722-.774 5.666.358 8.284 1.563 3.618 8.204 4.486 10.526 1.074 3.24-4.762-.41-10.562.06-15.666.128-1.385.624-2.736.99-4.075"/><path d="M16.13 6.737c1.377 0 2.493-1.323 2.493-2.953S17.506.832 16.13.83c-1.377.002-2.493 1.324-2.493 2.955 0 1.63 1.117 2.95 2.494 2.952"/><path d="M11.2 6.655c.957 0 1.734-.92 1.734-2.057 0-1.136-.78-2.056-1.737-2.056-.958 0-1.735.92-1.735 2.057 0 1.134.78 2.054 1.738 2.055"/><path d="M7.505 8.07c.887 0 1.604-.848 1.605-1.897 0-1.05-.72-1.9-1.605-1.9-.886 0-1.604.852-1.604 1.9 0 1.05.72 1.9 1.605 1.898"/><path d="M4.845 9.855C5.563 9.763 6.05 9 5.933 8.147c-.118-.85-.794-1.467-1.513-1.373-.72.094-1.206.86-1.088 1.71.116.85.792 1.465 1.513 1.37"/><path d="M3.583 10.32c-.23-.774-.948-1.256-1.602-1.072-.654.182-.997.958-.766 1.734.23.773.947 1.254 1.603 1.072.653-.184.997-.96.766-1.733"/></g></g></g></g></g></svg>