<svg width="35" height="20" viewBox="0 0 35 20" xmlns="http://www.w3.org/2000/svg"><title>Imported Layers</title><desc>Created with Sketch Beta.</desc><g fill="none" fill-rule="evenodd"><g stroke="#000"><g><g><path d="M33.272 8.197C29.488 3.305 23.792.5 17.642.5 11.495.5 5.798 3.306 2.015 8.197L1 9.507l1.014 1.312c3.783 4.89 9.48 7.695 15.63 7.695 6.147 0 11.844-2.805 15.628-7.696l1.015-1.312-1.015-1.31zm-15.63 5.954c-2.704 0-4.9-2.195-4.9-4.904 0-2.71 2.195-4.906 4.9-4.906 2.706 0 4.9 2.196 4.9 4.906 0 2.71-2.194 4.905-4.9 4.905z"/></g></g></g></g></svg>