<?xml version="1.0" encoding="UTF-8" standalone="no"?>
<svg width="20px" height="41px" viewBox="0 0 20 41" version="1.1" xmlns="http://www.w3.org/2000/svg" xmlns:xlink="http://www.w3.org/1999/xlink" xmlns:sketch="http://www.bohemiancoding.com/sketch/ns">
    <!-- Generator: Sketch Beta 3.2.2 (9983) - http://www.bohemiancoding.com/sketch -->
    <title>Imported Layers</title>
    <desc>Created with Sketch Beta.</desc>
    <defs></defs>
    <g id="Welcome" stroke="none" stroke-width="1" fill="none" fill-rule="evenodd" sketch:type="MSPage">
        <g id="Logged-in:-Patient-profile" sketch:type="MSArtboardGroup" transform="translate(-635.000000, -2137.000000)" stroke="#000000">
            <g id="Group" sketch:type="MSLayerGroup" transform="translate(250.000000, 430.500000)">
                <g id="Group-4" sketch:type="MSShapeGroup">
                    <g transform="translate(360.000000, 1688.000000)">
                        <g id="Imported-Layers" transform="translate(26.000000, 19.000000)">
                            <path d="M17.4543913,17.3968 C18.1367391,14.8984 19.2131304,11.5656 17.7790435,9.136 C16.4193043,6.8312 13.1471739,6.808 10.8547826,7.2856 C6.48313043,8.2008 0.579913043,11.9912 1.63978261,16.9512 C2.4006087,20.5136 5.45878261,24.5856 5.52073913,27.78 C5.57443478,30.5016 4.74586957,33.4464 5.8776087,36.064 C7.4413913,39.6824 14.0823043,40.5496 16.4044348,37.1376 C19.6435217,32.376 15.9946957,26.576 16.4647391,21.472 C16.5919565,20.0872 17.0884348,18.736 17.4543913,17.3968" id="Fill-1"></path>
                            <path d="M15.1314348,6.2368 C16.5068696,6.236 17.622913,4.9144 17.622913,3.284 C17.622913,1.6536 16.5060435,0.332 15.1306087,0.3312 C13.7526957,0.332 12.6374783,1.6536 12.6374783,3.2848 C12.6383043,4.9152 13.7543478,6.2352 15.1314348,6.2368" id="Fill-2"></path>
                            <path d="M10.1996957,6.1552 C11.1571304,6.1536 11.9344783,5.2336 11.9344783,4.0984 C11.9336522,2.9616 11.1554783,2.0416 10.1972174,2.0416 C9.23895652,2.0416 8.4616087,2.9616 8.4616087,4.0992 C8.46243478,5.2336 9.24143478,6.1544 10.1996957,6.1552" id="Fill-3"></path>
                            <path d="M6.50543478,7.5712 C7.39182609,7.5712 8.10886957,6.7216 8.10969565,5.6728 C8.10969565,4.624 7.391,3.7728 6.50543478,3.772 C5.61904348,3.7728 4.90117391,4.6248 4.90117391,5.6736 C4.90117391,6.7224 5.61904348,7.5728 6.50543478,7.5712" id="Fill-4"></path>
                            <path d="M3.8446087,9.3552 C4.56330435,9.2632 5.04986957,8.4992 4.93256522,7.6472 C4.81526087,6.7976 4.13869565,6.18 3.42,6.2736 C2.70130435,6.368 2.21391304,7.1328 2.33204348,7.984 C2.44769565,8.8336 3.12426087,9.4488 3.8446087,9.3552" id="Fill-5"></path>
                            <path d="M2.58317391,9.8208 C2.35269565,9.0456 1.63482609,8.564 0.980565217,8.748 C0.326304348,8.9296 -0.0165217391,9.7064 0.213956522,10.4816 C0.443608696,11.2552 1.16147826,11.736 1.81656522,11.5536 C2.47,11.3696 2.81365217,10.5944 2.58317391,9.8208" id="Fill-6"></path>
                        </g>
                    </g>
                </g>
            </g>
        </g>
    </g>
</svg>