<?xml version="1.0" encoding="UTF-8" standalone="no"?>
<svg width="60px" height="60px" viewBox="0 0 60 60" version="1.1" xmlns="http://www.w3.org/2000/svg" xmlns:xlink="http://www.w3.org/1999/xlink" xmlns:sketch="http://www.bohemiancoding.com/sketch/ns">
    <!-- Generator: Sketch Beta 3.2.2 (9983) - http://www.bohemiancoding.com/sketch -->
    <title>icon_pen</title>
    <desc>Created with Sketch Beta.</desc>
    <defs></defs>
    <g id="Welcome" stroke="none" stroke-width="1" fill="none" fill-rule="evenodd" sketch:type="MSPage">
        <g id="icon_pen" sketch:type="MSLayerGroup" fill="#444444">
            <path d="M59.9844,4.4622 L55.554,0.0318 L48.588,6.9972 L49.0818,7.491 L47.6898,8.883 L47.196,8.3898 L5.775,49.8114 L0.0156,60 L10.2042,54.2412 L51.6258,12.8196 L51.1332,12.3264 L52.5252,10.9344 L53.8356,12.2448 L40.425,25.6554 L40.9374,26.1678 L58.0872,9.018 L56.7576,7.6884 L59.9844,4.4622 L59.9844,4.4622 Z M1.9308,58.0854 L6.1458,50.6268 L9.3894,53.8698 L1.9308,58.0854 L1.9308,58.0854 Z M50.6208,11.814 L48.2028,9.3954 L49.5942,8.004 L52.0122,10.422 L50.6208,11.814 L50.6208,11.814 Z M49.6134,6.9972 L55.5534,1.0572 L58.9584,4.4622 L56.2452,7.176 L53.0184,10.4022 L49.6134,6.9972 L49.6134,6.9972 Z M57.0624,9.018 L54.3492,11.7318 L53.532,10.9146 L56.2458,8.2014 L57.0624,9.018 L57.0624,9.018 Z" id="Shape" sketch:type="MSShapeGroup"></path>
        </g>
    </g>
</svg>