<?xml version="1.0" encoding="UTF-8" standalone="no"?>
<svg width="187px" height="119px" viewBox="0 0 187 119" version="1.1" xmlns="http://www.w3.org/2000/svg" xmlns:xlink="http://www.w3.org/1999/xlink" xmlns:sketch="http://www.bohemiancoding.com/sketch/ns">
    <!-- Generator: Sketch Beta 3.2.2 (9983) - http://www.bohemiancoding.com/sketch -->
    <title>noun_project_20477 2</title>
    <desc>Created with Sketch Beta.</desc>
    <defs></defs>
    <g id="Welcome" stroke="none" stroke-width="1" fill="none" fill-rule="evenodd" sketch:type="MSPage">
        <g id="Logged-in:-Overview" sketch:type="MSArtboardGroup" transform="translate(-305.000000, -402.000000)" stroke="#3498DB" stroke-width="2" fill="#FFFFFF">
            <g id="noun_project_20477-2" sketch:type="MSLayerGroup" transform="translate(305.954726, 403.565193)">
                <path d="M180.463117,22.5166313 C180.463117,22.5166313 176.844412,17.8084343 171.503066,16.3513632 C171.503066,16.3513632 170.819019,14.1265056 172.110037,13.0140768 C173.401055,11.901648 176.848266,5.69042756 168.146419,2.24591909 C168.146419,2.24591909 156.773898,0.942022329 161.080503,10.3565016 C161.080503,10.3565016 162.288665,13.0121621 160.737516,13.7818633 C159.186368,14.5515644 154.101298,15.1527738 149.621272,20.546426 C145.141247,25.9400783 145.829147,27.9964441 145.829147,27.9964441 C145.829147,27.9964441 141.865529,21.490363 134.285133,21.490363 L133.849656,19.3497513 C133.849656,19.3497513 137.728491,20.4640948 138.333535,16.0105502 C138.934725,11.5589203 136.003922,12.6713491 136.003922,12.6713491 C136.003922,12.6713491 139.019509,5.0509246 129.200064,5.0509246 C129.200064,5.0509246 122.650555,6.07910751 123.772007,12.9298309 C124.891532,19.7786395 126.6161,19.692479 126.6161,19.692479 L127.047724,21.4042025 C127.047724,21.4042025 124.116921,21.3180419 123.513803,21.8330907 C123.513803,21.8330907 121.01655,17.5518672 114.037345,15.581662 C114.037345,15.581662 120.66971,4.45162991 109.381972,1.28474996 C109.381972,1.28474996 101.97307,1.19858939 101.88636,5.65213397 C101.79965,10.1037639 104.214046,15.6678226 104.214046,15.6678226 C104.214046,15.6678226 97.6645378,17.2110543 96.1133892,20.1213672 C94.5622406,23.0316801 94.9071544,25.2565377 94.9071544,25.2565377 L92.0746221,24.91381 C92.0746221,24.91381 96.3715928,19.1774302 94.0439065,13.5272109 C91.718147,7.87507691 85.9451765,7.10537573 81.5499343,9.41830861 C81.5499343,9.41830861 73.8828283,12.5851885 76.2085877,18.4919749 C76.2085877,18.4919749 76.8984153,21.0595601 77.8040549,22.5166313 C77.8040549,22.5166313 74.7441493,22.6870377 74.0543217,23.6309748 C74.0543217,23.6309748 70.8653143,15.4974161 62.5950909,13.8680238 C62.5950909,13.8680238 70.6938209,1.96829056 57.5967313,-0.00191467953 C57.5967313,-0.00191467953 49.6694947,0.942022329 49.8409882,5.30749166 C49.8409882,5.30749166 50.0991918,10.1018492 51.3921368,12.4971133 L51.5636302,14.0384303 C51.5636302,14.0384303 47.7734323,12.9260015 44.1547279,16.3494485 L43.2934068,19.8609708 C43.2934068,19.8609708 40.0196162,16.0928814 34.2466457,16.3494485 C34.2466457,16.3494485 35.19275,11.2123633 35.19275,10.4426622 C35.19275,9.67296098 36.485695,9.32831867 36.485695,9.32831867 C36.485695,9.32831867 34.5896326,0.765871812 25.6719732,2.34931178 C25.6719732,2.34931178 22.5484801,1.68491799 20.6524177,3.65512322 C18.7582822,5.62532846 19.0473161,10.51542 19.0473161,11.8844158 C19.0473161,13.2553264 21.6370599,14.2011781 22.4193783,14.0307716 C23.1997699,13.8603651 23.8992319,15.0608692 23.8992319,15.0608692 L24.2479995,15.6601639 C24.2479995,15.6601639 16.7523869,16.1752127 14.9430347,19.2578467 C13.1336825,22.3404808 11.4977506,30.4740394 10.6345027,31.8449499 C9.77318162,33.2139458 0.8979139,48.7975225 0.8979139,48.7975225 C0.8979139,48.7975225 1.50103131,51.0204654 2.36427924,51.3651077 C2.36427924,51.3651077 0.899840793,53.5038048 0.383433552,54.1030995 C-0.132973688,54.7023942 0.125229932,57.7869429 0.383433552,58.2139164 C0.641637172,58.64089 1.76116182,58.2139164 1.76116182,58.2139164 C1.76116182,58.2139164 1.24475458,56.2456259 2.53577269,55.0451218 C3.82871768,53.8484471 3.22560027,54.4477418 3.22560027,54.4477418 L3.48380389,55.9890588 L4.25841475,56.5883535 C4.25841475,56.5883535 4.25841475,54.9589612 4.60140165,54.1030995 C4.94631544,53.2491524 4.85960527,52.3932906 4.85960527,52.3932906 L6.84815852,53.1725652 C6.84815852,53.1725652 13.2242464,41.7821367 13.8273638,40.4112262 C14.4304813,39.0422303 16.841024,31.2494846 17.7061988,31.4237204 C18.565593,31.5941269 18.2226061,33.5643322 18.2226061,33.5643322 C18.2226061,33.5643322 18.65423,40.585462 15.8120633,44.5239578 C12.9679697,48.4624536 9.95045575,56.6821728 9.95045575,57.708441 C9.95045575,57.708441 11.3301109,59.5714242 17.5327785,61.7962818 L17.7042719,70.8431426 L17.1011545,70.8431426 C17.1011545,70.8431426 15.58469,73.0067305 16.0163139,76.259771 L16.482622,77.1443529 L16.482622,93.4076409 L16.8371702,96.9172484 C16.8371702,96.9172484 14.6848311,98.8893683 14.7715413,100.087958 C14.8582514,101.282718 16.3689353,103.252923 17.4017498,104.026454 C18.4364912,104.79424 22.5060885,105.225043 23.0224957,104.708079 C23.0224957,104.708079 24.2422188,100.599177 23.8105949,97.9454313 L22.6929971,97.0072384 C22.6929971,97.0072384 24.1901927,81.2513405 24.6198898,78.5975947 L26.1170854,77.5694118 L26.1170854,71.8330319 L25.4465268,71.4903043 C25.4465268,71.4903043 27.1325579,63.4409915 27.5641818,63.1020933 C27.9938789,62.7574509 28.3214506,63.701388 28.3214506,63.701388 C28.3214506,63.701388 27.5776701,79.2849646 28.3522809,80.4854687 C29.1288187,81.6783141 29.8379152,82.5360905 29.8379152,82.5360905 L30.4468133,82.2776087 L32.5182229,98.0335066 C32.5182229,98.0335066 32.6935702,105.569685 32.0923796,106.335557 C31.4892622,107.107173 31.5355076,107.708382 32.5451994,108.219602 C33.5568181,108.73465 39.0735118,108.73465 39.3297886,108.219602 C39.5879922,107.706468 40.3626031,105.652016 40.0176893,104.453427 C39.6727755,103.252923 38.9848748,97.0053237 36.5704782,96.6625961 C36.5704782,96.6625961 38.1216269,82.5341758 38.2950472,81.9367958 L39.5860653,81.3375011 C39.5860653,81.3375011 38.9829479,76.9739465 38.8114544,76.5431436 C38.639961,76.11617 39.501282,63.7856339 39.501282,63.7856339 L43.4649003,62.4128086 C43.4649003,62.4128086 41.7403313,58.3919816 41.7403313,56.5098516 C41.7403313,54.625807 41.2239241,43.4096143 37.2603058,37.7574803 L37.3894076,34.3340333 L40.8790103,32.149384 C40.8790103,32.149384 44.8869471,37.0299021 48.5056516,37.7996033 C48.5056516,37.7996033 45.534383,53.5937947 45.7925866,57.9611787 C46.0507903,62.3304774 48.5056516,73.630916 48.5056516,73.630916 C48.5056516,73.630916 50.185902,76.1985012 50.0548733,77.3568824 C49.9276984,78.5114341 49.1511606,84.1635681 54.4520424,89.6835892 C54.4520424,89.6835892 51.7351237,96.4941043 50.9605128,97.5184578 C50.185902,98.544726 46.952576,103.30079 48.1164192,105.225043 C48.1164192,105.225043 48.7638552,106.381509 52.6407633,106.507878 C52.6407633,106.507878 51.3497452,108.307677 53.2881992,109.975363 C55.2266533,111.648793 60.6065376,110.972911 60.6065376,110.972911 C60.6065376,110.972911 61.0420154,107.537976 63.2405999,106.383424 C65.4391845,105.228872 66.8593044,104.330888 66.0846935,102.531089 C65.3081558,100.733205 63.6298323,98.6768389 63.6298323,98.6768389 C63.6298323,98.6768389 60.2674045,93.0266196 60.527535,88.1441868 C60.7857387,83.2636687 61.6913782,76.3286995 61.82048,71.7066631 L66.9884062,70.5521113 C66.9884062,70.5521113 72.6765934,70.1672607 72.8056952,68.1128096 C72.9347971,66.0545291 72.4183898,50.51499 68.2832781,40.4993014 C68.2832781,40.4993014 73.3221025,39.0862679 73.8404366,38.3165667 C73.8404366,38.3165667 76.0351674,46.9211366 74.4859457,52.1884199 C74.4859457,52.1884199 72.6765934,56.167124 73.0638989,60.7872457 C73.4512043,65.4150261 77.8040549,83.5202358 77.8040549,83.5202358 L79.1355377,83.3919522 C79.1355377,83.3919522 81.2050205,96.2394519 82.8852709,98.8051224 C82.8852709,98.8051224 82.7561691,100.603007 81.0759187,102.272607 C79.3956682,103.946037 79.7849006,105.996659 79.7849006,105.996659 C79.7849006,105.996659 80.0431042,107.924741 80.0431042,108.566159 C80.0431042,109.211406 80.6905401,112.675061 86.1185968,112.548692 C86.1185968,112.548692 89.9955049,107.924741 90.5119122,107.285238 C91.0302463,106.639991 90.9011445,104.072406 90.5119122,103.685641 C90.1265336,103.302705 88.9626904,101.759473 88.9626904,101.759473 C88.9626904,101.759473 87.9279491,100.603007 88.0589778,98.1637048 C88.1880796,95.7263178 89.6081995,90.9721685 89.7392282,82.2393152 C89.7392282,82.2393152 97.4949713,79.2868793 101.626229,77.1003153 C101.626229,77.1003153 103.953916,88.6592356 104.084944,89.8157021 C104.210192,90.9721685 106.668907,90.7136868 106.668907,90.7136868 C106.668907,90.7136868 110.935048,101.887756 111.451455,104.330888 C111.967862,106.768275 111.451455,108.185137 111.451455,108.185137 C111.451455,108.185137 107.57262,108.311506 107.57262,110.622525 C107.57262,112.935457 111.57863,115.631326 118.428733,114.090009 C118.428733,114.090009 121.141798,112.805259 120.108984,108.056854 C119.076169,103.304619 117.008614,89.9478149 118.428733,87.3764003 L121.01655,87.8914491 L122.178467,83.1392145 L123.731542,82.8826475 C123.731542,82.8826475 123.211281,94.315199 128.643192,102.146238 L129.622053,106.442779 C129.622053,106.442779 127.864727,105.102503 126.057302,106.513622 C124.247949,107.926656 123.211281,113.833442 132.003692,113.576875 C132.003692,113.576875 136.138804,113.576875 136.528036,112.292125 C136.915342,111.00929 135.622397,109.33586 135.622397,109.33586 L135.491368,108.437875 C135.491368,108.437875 137.755467,108.313421 138.368219,108.185137 C138.979044,108.056854 139.241101,105.100589 139.241101,105.100589 L138.075331,100.991686 C138.075331,100.991686 136.915342,99.3201712 137.173546,97.0110677 C137.429822,94.6943055 139.499305,89.4346808 136.788167,80.8281963 C136.788167,80.8281963 135.104063,78.0021294 136.788167,75.1760624 C138.462637,72.3480807 140.017639,68.1147243 142.21237,64.3906726 C142.21237,64.3906726 142.470574,65.4169408 144.412881,65.8017914 C144.412881,65.8017914 143.118009,60.6627915 144.412881,60.9193586 C144.412881,60.9193586 144.368563,62.075825 145.405231,62.3343068 C145.405231,62.3343068 145.145101,61.2257073 145.405231,59.4661168 C145.663435,57.708441 145.405231,53.6837847 145.405231,53.6837847 L148.935298,46.5784089 C148.935298,46.5784089 146.696249,58.993191 147.299367,59.9332986 L148.935298,60.1075345 C148.935298,60.1075345 146.44768,80.0546658 150.324588,85.7067998 C154.197642,91.3551044 157.145788,99.8313907 157.145788,101.62736 L157.145788,116.014262 C157.145788,116.014262 163.764665,116.527396 165.053756,113.184366 C166.352481,109.845165 165.785975,109.588598 167.33327,107.536061 C168.884418,105.48161 171.832564,103.427159 171.832564,103.427159 C171.832564,103.427159 167.491275,98.8012931 167.751406,93.4076409 C168.009609,88.0159033 170.878752,69.520099 174.49553,65.152715 C178.114234,60.785331 176.029337,55.1370264 176.029337,55.1370264 L178.341608,54.6238923 L178.341608,66.1828126 C178.341608,66.1828126 177.208595,71.0633307 179.272297,72.8573855 C181.34178,74.6571842 181.939116,71.0614161 181.939116,71.0614161 C181.939116,71.0614161 180.555607,66.1808979 181.850479,65.1508004 C183.141497,64.1245321 183.615513,62.070081 183.615513,62.070081 C183.615513,62.070081 185.889246,37.9298015 180.463117,22.5166313 L180.463117,22.5166313 Z M99.4738901,54.7062235 L99.1270494,56.507937 L94.7761257,44.7211698 L99.8188038,40.2082701 L100.851618,40.2082701 L101.971143,41.3781393 L99.4738901,54.7062235 L99.4738901,54.7062235 Z M145.659581,41.0966814 C144.794406,41.7821367 142.38579,48.2460948 142.38579,48.2460948 L141.607326,47.8593295 C141.607326,47.8593295 139.53977,43.9208337 139.711263,41.7821367 C139.88661,39.6434397 141.179555,35.7030292 141.179555,35.7030292 C141.179555,35.7030292 141.695963,34.0755516 142.29908,34.5886857 C142.902197,35.1037345 145.661508,38.6133421 145.661508,38.6133421 C145.661508,38.6133421 146.520902,40.4112262 145.659581,41.0966814 L145.659581,41.0966814 Z" id="Shape" sketch:type="MSShapeGroup"></path>
            </g>
        </g>
    </g>
</svg>